<?xml version="1.0" encoding="utf-8"?>
<!-- Generator: Adobe Illustrator 17.1.0, SVG Export Plug-In . SVG Version: 6.00 Build 0)  -->
<svg version="1.2" baseProfile="tiny" xmlns="http://www.w3.org/2000/svg" xmlns:xlink="http://www.w3.org/1999/xlink" x="0px"
	 y="0px" viewBox="800 1450 400 400" xml:space="preserve">
<g id="Направляющие_для_монтажной_области">
</g>
<g id="Logo_Artwork">
</g>
<g id="Margin_x2F_Guide">
	
	<g>
		
		<g>
			<!-- <text transform="matrix(1 0 0 1 790.3381 1828.1415)" font-family="'Sansation-Bold'" font-size="82.0225">Digital Lion</text> -->
			<!-- <text transform="matrix(1 0 0 1 851.2869 1876.9989)" font-family="'Sansation-Regular'" font-size="30.7874">TAGLINE  COMPANY</text> -->
			<g>
				<linearGradient id="SVGID_3_" gradientUnits="userSpaceOnUse" x1="825.4189" y1="1627.4159" x2="1136.5681" y2="1547.5262">
					<stop  offset="0" style="stop-color:#702889"/>
					<stop  offset="0.59" style="stop-color:#ED1D84"/>
					<stop  offset="1" style="stop-color:#F26529"/>
				</linearGradient>
				<path fill="url(#SVGID_3_)" d="M1080.3,1554.9c-0.6-0.4-1.4-0.4-2,0l-25,13c-0.9,0.5-1.3,1.5-1.1,2.4c0.3,0.9,1.1,1.5,2,1.5
					c0.1,0,0.1,0,0.2,0l25.4-1.9c1.1-0.1,2-1.1,1.9-2.2l-0.4-11C1081.3,1555.9,1080.9,1555.2,1080.3,1554.9z M1064.4,1566.8
					l12.9-6.7l0.2,5.7L1064.4,1566.8z"/>
				<linearGradient id="SVGID_4_" gradientUnits="userSpaceOnUse" x1="828.0495" y1="1637.6769" x2="1139.2432" y2="1557.7759">
					<stop  offset="0" style="stop-color:#702889"/>
					<stop  offset="0.59" style="stop-color:#ED1D84"/>
					<stop  offset="1" style="stop-color:#F26529"/>
				</linearGradient>
				<path fill="url(#SVGID_4_)" d="M1155.5,1587.6c-0.1-0.6-0.5-1.1-1-1.4l-56.5-32.1l-14.3-21.8l33-11.4c0.9-0.3,1.5-1.2,1.4-2.1
					c-0.1-0.9-0.7-1.7-1.7-1.9l-30.7-6.6l1.6-15.2c0.1-0.6-0.1-1.1-0.5-1.6c-0.4-0.4-0.9-0.7-1.5-0.7l-30.4-1.6l-24.8-30.2
					c-0.7-0.9-2-1-2.9-0.3l-23.9,18c-1.2-0.9-2.7-1.5-4.4-1.5c-3,0-5.5,1.7-6.7,4.2l-36.6-5.7c-1-0.2-2,0.5-2.3,1.5l-8.5,28.3
					c-2.3,0.1-4.3,1.3-5.4,3.1l-29.2-10.6c0-0.2,0.1-0.3,0.1-0.5c0-3.1-2.4-5.6-5.6-5.6c-3.1,0-5.6,2.5-5.6,5.6c0,3,2.4,5.6,5.6,5.6
					c1.9,0,3.6-1,4.6-2.4l29.2,10.6c0,0.2-0.1,0.5-0.1,0.7l-84.1,25.3c-0.1,0-0.1,0.1-0.2,0.1c-0.2,0.1-0.4,0.2-0.5,0.3
					c-0.1,0.1-0.2,0.1-0.2,0.2c-0.1,0.1-0.2,0.3-0.3,0.5c0,0.1-0.1,0.1-0.1,0.2c0,0,0,0.1,0,0.1c0,0-0.1,0.1-0.1,0.1
					c0,0.2,0,0.3,0,0.4c0,0.1,0,0.2,0,0.3c0,0.3,0.1,0.6,0.3,0.8c0,0,0,0,0,0v0l29.3,47.4c-1,1.2-1.6,2.6-1.6,4.2
					c0,1.7,0.7,3.3,1.7,4.4l-12,20.9l-8.7-1.5c-0.1-2.4-1.7-4.5-4.1-5.3c-3.1-1-6.5,0.7-7.5,3.9c-0.9,3.1,0.8,6.4,3.9,7.4
					c3,0.9,6-0.6,7.3-3.3l7.7,1.3l-24.4,42.6c-0.4,0.7-0.4,1.5,0,2.1c0.4,0.7,1.1,1,1.9,1l43.4-1.3l-13.8,15.1
					c-0.3-0.2-0.7-0.4-1.1-0.5c-3.1-0.9-6.5,0.8-7.5,3.9c-0.9,3.1,0.8,6.5,3.9,7.5c3.1,0.9,6.5-0.8,7.5-3.9c0.5-1.8,0.2-3.6-0.8-5.1
					l15.7-17.1l59.6,11c0.2,2.3,1.5,4.3,3.3,5.6l-4.8,16l-27.2,6.9c-0.7-1.2-1.8-2.2-3.3-2.7c-3-0.8-6.1,0.8-6.9,3.8
					c-0.8,2.9,0.8,6,3.7,6.9c3,0.8,6.1-0.8,7-3.7c0.2-0.5,0.2-1.1,0.2-1.6l25.6-6.5l-10.6,34.8c-0.3,0.8,0,1.7,0.7,2.3
					c0.4,0.3,0.8,0.4,1.3,0.4c0.4,0,0.8-0.1,1.1-0.3l83.3-51.7c0.9,0.4,1.8,0.7,2.8,0.7c3.5,0,6.2-2.8,6.2-6.2c0,0,0-0.1,0-0.1
					l33.1-20.6l34,0.2l3,22.5c0.1,0.8,0.7,1.5,1.5,1.7c0.8,0.2,1.7,0,2.2-0.7l33.7-41c0.3-0.4,0.5-0.9,0.5-1.4l-0.9-35.1l12.2-16.3
					C1155.5,1588.8,1155.7,1588.2,1155.5,1587.6z M1108.3,1519.3l-27.9,9.6l-25.4-13c0-0.1,0-0.1,0-0.2l27.1-2.4
					c0.3,0.3,0.6,0.5,1,0.5L1108.3,1519.3z M1075.2,1529.4l-29,2l2.4-10.1c0,0,0.1,0,0.1,0c2.2,0,4.1-1.1,5.3-2.8L1075.2,1529.4z
					 M1081.6,1510.7l-26.4,2.3l27.8-15.3L1081.6,1510.7z M1079.2,1496.6l-25.7,14.1c-0.6-0.6-1.2-1.1-2-1.5l3.3-13.8L1079.2,1496.6z
					 M1028.2,1465.2l21.3,25.9l-43.1-6.7c0-0.8-0.2-1.6-0.5-2.3L1028.2,1465.2z M1006,1487.1l46.2,7.2l0.1,0.1l-3.4,14.1
					c0,0-0.1,0-0.1,0c-3.5,0-6.4,2.9-6.4,6.4c0,2.5,1.5,4.7,3.6,5.7l-2.4,10.2L1005,1489C1005.4,1488.4,1005.7,1487.8,1006,1487.1z
					 M1041.8,1533.1l-11,9.8c-0.9-0.5-2-0.8-3.1-0.8c-0.4,0-0.8,0-1.2,0.1l-22.6-50.3L1041.8,1533.1z M1020.3,1594.4l-11.3,8.7
					l-6.6-26.9l18.1,13.1c-0.4,0.9-0.6,1.8-0.6,2.8C1019.9,1592.9,1020,1593.6,1020.3,1594.4z M962.9,1621.5l43.6-13l16.5,15.3
					L962.9,1621.5z M1026,1626.8l0.2,0.2c0.2,0.2,0.4,0.3,0.7,0.4l27.4,10.6l-16.6,4.7c-1.2-2.2-3.5-3.8-6.2-3.8
					c-2.7,0-4.9,1.5-6.1,3.7l-60.1-18.3L1026,1626.8z M957.1,1560.1l30.7-4.5l9.4,15.9c-0.1,0.4-0.1,0.8,0,1.2l7.1,28.8l-48.1-36.2
					c0.6-1.3,1-2.8,1-4.4C957.2,1560.6,957.1,1560.4,957.1,1560.1z M990.8,1555.2l30.9-4.5c0,0,0,0,0,0l-22.5,18.7L990.8,1555.2z
					 M1003.9,1606.4l-44.6,13.3c-0.7-1.2-1.9-2.2-3.3-2.6l-5.7-46.6c1.3-0.4,2.4-1.1,3.4-2L1003.9,1606.4z M1002.1,1572.5l22.3-18.6
					c0.3,0.2,0.7,0.4,1.1,0.5l-0.7,31c-1,0.3-1.9,0.8-2.7,1.5L1002.1,1572.5z M996,1491.3c0.9,0.4,2,0.7,3.1,0.7
					c0.6,0,1.2-0.1,1.7-0.2l23.1,51.5c-1.5,1.1-2.5,2.8-2.6,4.7l-32,4.7l-6.5-11c1.3-1.3,1.9-3.2,1.5-5.1c-0.6-3-3.6-5-6.6-4.3
					c-3,0.7-5,3.6-4.3,6.7c0.7,2.9,3.6,4.9,6.7,4.2c0.1,0,0.2-0.1,0.3-0.1l5.9,10l-29.8,4.3c-0.8-2.1-2.2-3.8-4-5L996,1491.3z
					 M956.9,1480.2l34.8,5.4c0,0.4,0.1,0.7,0.2,1.1l-41.7,21.4c-0.4-0.5-0.8-0.9-1.3-1.2L956.9,1480.2z M950.8,1515.7l10.1,3.7
					c0.2,0.1,0.3,0.1,0.5,0.1c0.6,0,1.1-0.4,1.3-0.9c0.3-0.7-0.1-1.5-0.8-1.8l-10.1-3.7c0-0.3,0.1-0.6,0.1-0.9
					c0-0.6-0.1-1.2-0.3-1.7l41.7-21.4c0.2,0.2,0.3,0.4,0.5,0.6l-43.7,61.5c-0.6-0.2-1.3-0.3-2-0.4l-1.2-32.2
					C948.4,1518.2,949.9,1517.2,950.8,1515.7z M939.7,1516.1c1,1.4,2.5,2.4,4.3,2.7l1.2,32.1c-3.3,0.6-6.1,2.7-7.5,5.7l-74.5-17.5
					L939.7,1516.1z M894.1,1591l44.9-23.6c0.3,0.3,0.6,0.7,0.9,1l-35.3,49.7c-0.6-0.2-1.2-0.3-1.9-0.3c-0.8,0-1.5,0.2-2.3,0.4
					l-9-20.7c1.7-1.2,2.8-3.2,2.8-5.4C894.2,1591.7,894.1,1591.3,894.1,1591z M859.4,1542.5l77.2,18.1c0,0.1,0,0.2,0,0.2
					c0,1,0.2,1.9,0.4,2.8l-44.9,23.6c-1.2-1.1-2.8-1.9-4.6-1.9c-0.5,0-1,0.1-1.5,0.2L859.4,1542.5z M873.5,1620.7l15,2.6
					c0.1,0,0.2,0,0.2,0c0.7,0,1.3-0.5,1.4-1.2c0.1-0.8-0.4-1.5-1.1-1.6l-14-2.4l11.2-19.6c0.4,0.1,0.9,0.1,1.3,0.1
					c0.5,0,0.9,0,1.3-0.1l9.1,21c-1.7,1.4-2.9,3.5-2.9,5.9c0,0.7,0.1,1.3,0.3,1.9l-43.1,30.6L873.5,1620.7z M892.9,1660.1l-40.8,1.2
					l44.5-31.5c0.6,0.8,1.3,1.5,2.2,2L892.9,1660.1z M901.4,1632.8c0.4,0.1,0.9,0.1,1.3,0.1c1.8,0,3.5-0.7,4.8-1.7l7.3,6.1
					l-18.4,20.1L901.4,1632.8z M954.2,1671.2l-57-10.5l19.7-21.4l37.5,31.7C954.3,1671,954.2,1671.1,954.2,1671.2z M956.1,1668.8
					l-37.4-31.6l10.6-11.6c0.5-0.6,0.5-1.4-0.1-2c-0.6-0.5-1.4-0.5-2,0.1l-10.7,11.7l-7.3-6.2c0.6-1.1,1-2.4,1-3.8
					c0-2.5-1.2-4.7-3.2-6.1l35-49.3c1.2,0.6,2.5,1,3.9,1.1l5.7,46.7c-1.7,1-2.8,2.8-2.8,4.9c0,2.5,1.7,4.7,4.1,5.3l4.9,39.8
					C957.2,1668,956.7,1668.3,956.1,1668.8z M946,1730.7l9.7-31.9l25.6-6.5c0.7-0.2,1.2-0.9,1-1.7c-0.2-0.7-1-1.2-1.7-1l-24,6.1
					l4.1-13.5c0,0,0.1,0,0.1,0c3.5,0,6.4-2.3,7.3-5.5l55.3,4.9c0.1,0.3,0.2,0.6,0.3,0.9L946,1730.7z M1023.4,1678.7l-55-4.9
					c-0.3-3.4-2.9-6.1-6.3-6.6l-4.9-39.8c0.3-0.1,0.5-0.3,0.7-0.5l65.9,50.4C1023.6,1677.8,1023.5,1678.2,1023.4,1678.7z
					 M1028.5,1673.7c-1.1,0.2-2.1,0.7-3,1.4l-64.1-49l63.1,19.2c0,0.2-0.1,0.4-0.1,0.7c0,3.2,2.2,5.9,5.2,6.7L1028.5,1673.7z
					 M1034.3,1675.9c-0.8-0.9-1.8-1.6-3-2l1.2-21.1c3.4-0.5,6-3.4,6-6.8c0-0.2,0-0.4-0.1-0.5l19.9-5.7l7.3,16.6L1034.3,1675.9z
					 M1109.4,1676.7l-2.6-19.6c-0.1-1-1-1.8-2.1-1.8l-35.1-0.2l-7.9-18c-0.2-0.5-0.6-0.9-1.2-1.1l-31.8-12.3l-18-16.7l11.9-9.2
					c1.1,0.8,2.5,1.3,4,1.3c3.9,0,7-3.1,7-7c0-3-2-5.6-4.8-6.5l0.7-31.1c2.5-0.9,4.4-3.2,4.4-6c0-0.9-0.2-1.7-0.5-2.4l11.5-10.2
					l34.3-2.4l15.3,23.5c0.2,0.3,0.4,0.5,0.7,0.7l37.4,21.2l5.8,26.4l0.9,34.9L1109.4,1676.7z M1141.9,1599.9l-4.1-18.4l12.5,7.1
					L1141.9,1599.9z"/>
			</g>
		</g>
		
		
	</g>
</g>
</svg>
