<?xml version="1.0" encoding="utf-8"?>
<!-- Generator: Adobe Illustrator 17.1.0, SVG Export Plug-In . SVG Version: 6.00 Build 0)  -->
<svg version="1.2" baseProfile="tiny" xmlns="http://www.w3.org/2000/svg" xmlns:xlink="http://www.w3.org/1999/xlink" x="0px"
	 y="0px" viewBox="850 1450 400 400" xml:space="preserve">
<g id="Направляющие_для_монтажной_области">
</g>
<g id="Logo_Artwork">
</g>
<g id="Margin_x2F_Guide">
	<g>
		<!-- <text transform="matrix(1 0 0 1 668.6191 891.2261)" font-family="'Sansation-Bold'" font-size="129.6405">Digital Lion</text> -->
		<!-- <text transform="matrix(1 0 0 1 764.9514 968.4468)" font-family="'Sansation-Regular'" font-size="48.661">TAGLINE  COMPANY</text> -->
		<!-- <g>
			<linearGradient id="SVGID_1_" gradientUnits="userSpaceOnUse" x1="724.0656" y1="573.9695" x2="1215.8522" y2="447.7002">
				<stop  offset="0" style="stop-color:#00A651"/>
				<stop  offset="0.55" style="stop-color:#246693"/>
				<stop  offset="1" style="stop-color:#43C5E4"/>
			</linearGradient>
			<path fill="url(#SVGID_1_)" d="M1126.9,459.3c-1-0.6-2.2-0.6-3.2-0.1l-39.5,20.5c-1.4,0.7-2.1,2.3-1.7,3.9
				c0.4,1.4,1.7,2.4,3.2,2.4c0.1,0,0.2,0,0.3,0l40.1-3.1c1.8-0.1,3.1-1.7,3.1-3.4l-0.7-17.4C1128.5,460.9,1127.9,459.9,1126.9,459.3
				z M1101.8,478.1l20.3-10.6l0.3,9L1101.8,478.1z"/>
			<linearGradient id="SVGID_2_" gradientUnits="userSpaceOnUse" x1="728.2233" y1="590.1876" x2="1220.0802" y2="463.9003">
				<stop  offset="0" style="stop-color:#00A651"/>
				<stop  offset="0.55" style="stop-color:#246693"/>
				<stop  offset="1" style="stop-color:#43C5E4"/>
			</linearGradient>
			<path fill="url(#SVGID_2_)" d="M1245.8,511c-0.2-0.9-0.8-1.7-1.6-2.2l-89.3-50.7l-22.6-34.5l52.2-18c1.4-0.5,2.3-1.9,2.2-3.3
				c-0.1-1.5-1.2-2.7-2.6-3.1l-48.5-10.4l2.5-24c0.1-0.9-0.2-1.8-0.8-2.5c-0.6-0.7-1.4-1.1-2.4-1.2l-48.1-2.5l-39.2-47.7
				c-1.1-1.4-3.2-1.6-4.6-0.5l-37.7,28.5c-2-1.4-4.3-2.3-6.9-2.3c-4.7,0-8.7,2.7-10.6,6.7l-57.8-8.9c-1.6-0.2-3.2,0.7-3.7,2.3
				l-13.4,44.8c-3.7,0.1-6.8,2-8.6,4.9l-46.1-16.8c0-0.3,0.1-0.5,0.1-0.8c0-4.9-3.9-8.9-8.8-8.9c-4.9,0-8.8,4-8.8,8.9
				c0,4.8,3.9,8.8,8.8,8.8c3,0,5.7-1.5,7.2-3.8l46.1,16.8c0,0.4-0.1,0.7-0.1,1.1l-133,40c-0.1,0-0.2,0.1-0.3,0.1
				c-0.3,0.1-0.6,0.3-0.8,0.5c-0.1,0.1-0.2,0.2-0.4,0.3c-0.2,0.2-0.4,0.5-0.5,0.7c-0.1,0.1-0.2,0.2-0.2,0.3c0,0.1,0,0.1,0,0.2
				c0,0.1-0.1,0.1-0.1,0.2c0,0.2,0,0.5,0,0.7c0,0.2,0,0.3,0,0.5c0.1,0.5,0.2,0.9,0.4,1.3c0,0,0,0,0,0v0l46.2,74.9
				c-1.5,1.8-2.5,4.2-2.5,6.7c0,2.7,1,5.1,2.7,7l-18.9,33.1l-13.7-2.4c-0.2-3.8-2.7-7.2-6.5-8.3c-4.9-1.6-10.3,1.1-11.9,6.1
				c-1.5,4.9,1.2,10.1,6.1,11.7c4.7,1.5,9.6-0.9,11.5-5.2l12.2,2.1l-38.6,67.4c-0.6,1-0.6,2.3,0,3.4c0.6,1,1.7,1.6,2.9,1.6l68.6-2.1
				l-21.9,23.9c-0.5-0.3-1.1-0.6-1.7-0.8c-4.9-1.5-10.3,1.2-11.9,6.1c-1.5,4.9,1.2,10.3,6.1,11.8c4.9,1.5,10.3-1.2,11.9-6.1
				c0.8-2.8,0.3-5.8-1.2-8.1l24.8-27l94.1,17.4c0.4,3.7,2.3,6.9,5.2,8.8l-7.7,25.3l-43,10.9c-1.1-2-2.9-3.6-5.2-4.3
				c-4.7-1.3-9.6,1.3-10.9,6c-1.3,4.7,1.2,9.5,5.9,10.9c4.7,1.3,9.6-1.2,11.1-5.9c0.2-0.8,0.3-1.7,0.3-2.5l40.4-10.3l-16.7,55.1
				c-0.4,1.3,0.1,2.8,1.2,3.6c0.6,0.5,1.3,0.7,2,0.7c0.6,0,1.2-0.2,1.8-0.5l131.6-81.8c1.4,0.7,2.9,1.1,4.5,1.1
				c5.5,0,9.9-4.4,9.9-9.9c0,0,0-0.1,0-0.1l52.3-32.5l53.7,0.2l4.8,35.6c0.2,1.3,1.1,2.4,2.4,2.8c1.3,0.4,2.6-0.1,3.5-1.1l53.3-64.8
				c0.5-0.6,0.8-1.4,0.8-2.2l-1.4-55.5l19.3-25.7C1245.8,512.9,1246,511.9,1245.8,511z M1171.1,403.2l-44,15.2l-40.2-20.5
				c0-0.1,0-0.2,0-0.3l42.8-3.7c0.4,0.4,0.9,0.7,1.5,0.9L1171.1,403.2z M1118.9,419.1l-45.9,3.2l3.8-16c0.1,0,0.1,0,0.2,0
				c3.4,0,6.5-1.7,8.3-4.3L1118.9,419.1z M1128.9,389.4l-41.7,3.6l43.9-24.1L1128.9,389.4z M1125.1,367.2l-40.6,22.3
				c-0.9-1-1.9-1.8-3.1-2.4l5.3-21.9L1125.1,367.2z M1044.6,317.5l33.6,40.9l-68.1-10.6c0-1.3-0.3-2.5-0.7-3.7L1044.6,317.5z
				 M1009.4,352.2l73,11.4l0.1,0.2l-5.4,22.3c-0.1,0-0.1,0-0.2,0c-5.6,0-10.1,4.5-10.1,10.1c0,4,2.3,7.4,5.7,9.1l-3.8,16.1
				l-60.9-66.1C1008.5,354.3,1009.1,353.2,1009.4,352.2z M1066,424.8l-17.4,15.5c-1.5-0.8-3.2-1.3-5-1.3c-0.7,0-1.3,0.1-1.9,0.2
				l-35.7-79.5L1066,424.8z M1032.1,521.8l-17.9,13.7l-10.5-42.6l28.7,20.7c-0.6,1.4-1,2.9-1,4.5
				C1031.4,519.4,1031.7,520.6,1032.1,521.8z M941.4,564.7l68.8-20.5l26,24.2L941.4,564.7z M1041.2,573l0.4,0.3
				c0.3,0.3,0.7,0.5,1.1,0.7l43.3,16.8l-26.3,7.5c-1.8-3.5-5.5-6-9.8-6c-4.2,0-7.8,2.4-9.7,5.8L945,569.2L1041.2,573z M932.2,467.6
				l48.5-7.1l14.8,25.1c-0.2,0.6-0.2,1.2-0.1,1.8l11.2,45.5l-76-57.2c1-2.1,1.6-4.4,1.6-6.9C932.3,468.4,932.3,468,932.2,467.6z
				 M985.5,459.8l48.8-7.1c0,0,0,0,0,0l-35.5,29.6L985.5,459.8z M1006.1,540.8l-70.5,21c-1.2-2-3-3.4-5.3-4l-9-73.7
				c2-0.7,3.9-1.7,5.4-3.1L1006.1,540.8z M1003.3,487.2l35.3-29.4c0.5,0.3,1.1,0.6,1.7,0.8l-1,49.1c-1.6,0.5-3,1.3-4.2,2.4
				L1003.3,487.2z M993.6,358.9c1.5,0.7,3.1,1.1,4.9,1.1c0.9,0,1.8-0.1,2.7-0.4l36.5,81.4c-2.3,1.7-3.9,4.4-4.1,7.4l-50.6,7.4
				l-10.3-17.4c2-2,3.1-5,2.4-8c-0.9-4.8-5.7-7.9-10.4-6.8c-4.8,1.1-7.9,5.7-6.8,10.5c1.1,4.7,5.7,7.7,10.5,6.7
				c0.2,0,0.3-0.1,0.5-0.2l9.4,15.9l-47.1,6.9c-1.2-3.3-3.4-6.1-6.3-7.9L993.6,358.9z M931.9,341.3l55,8.5c0.1,0.6,0.2,1.1,0.4,1.7
				l-65.9,33.8c-0.6-0.7-1.3-1.4-2.1-2L931.9,341.3z M922.2,397.5l16,5.8c0.2,0.1,0.5,0.1,0.7,0.1c0.9,0,1.7-0.6,2.1-1.4
				c0.4-1.1-0.2-2.4-1.3-2.8l-16-5.8c0.1-0.5,0.2-1,0.2-1.5c0-0.9-0.2-1.8-0.4-2.7l65.9-33.7c0.2,0.3,0.5,0.6,0.7,0.9l-69.1,97.2
				c-1-0.3-2.1-0.5-3.2-0.6l-1.8-50.8C918.5,401.4,920.7,399.7,922.2,397.5z M904.7,398c1.6,2.2,4,3.8,6.8,4.3l1.8,50.8
				c-5.3,0.9-9.7,4.3-11.9,9l-117.8-27.6L904.7,398z M832.6,516.4l71-37.3c0.4,0.5,0.9,1.1,1.4,1.5l-55.8,78.6c-1-0.2-1.9-0.4-3-0.4
				c-1.3,0-2.4,0.3-3.6,0.6l-14.3-32.8c2.7-1.9,4.4-5,4.4-8.6C832.8,517.5,832.7,516.9,832.6,516.4z M777.8,439.8l122,28.6
				c0,0.1,0,0.3,0,0.4c0,1.5,0.3,3,0.7,4.4l-71,37.3c-1.9-1.8-4.4-2.9-7.3-2.9c-0.8,0-1.6,0.1-2.4,0.3L777.8,439.8z M800.1,563.4
				l23.7,4.1c0.1,0,0.3,0,0.4,0c1.1,0,2-0.8,2.2-1.8c0.2-1.2-0.6-2.3-1.8-2.5l-22.2-3.8l17.7-31c0.7,0.1,1.4,0.2,2.1,0.2
				c0.7,0,1.4-0.1,2.1-0.2l14.5,33.1c-2.7,2.2-4.5,5.5-4.5,9.3c0,1.1,0.2,2.1,0.4,3l-68.2,48.3L800.1,563.4z M830.8,625.6l-64.5,1.9
				l70.3-49.8c0.9,1.3,2.1,2.3,3.4,3.1L830.8,625.6z M844.2,582.5c0.7,0.1,1.4,0.2,2.1,0.2c2.9,0,5.5-1,7.5-2.7l11.5,9.7l-29.1,31.7
				L844.2,582.5z M927.5,643.2l-90-16.7l31.1-33.9l59.2,50.1C927.7,642.8,927.6,643,927.5,643.2z M930.7,639.3l-59.1-50l16.8-18.3
				c0.8-0.9,0.8-2.3-0.1-3.1c-0.9-0.8-2.3-0.8-3.1,0.1l-16.9,18.4l-11.6-9.8c1-1.8,1.6-3.8,1.6-5.9c0-3.9-2-7.5-5-9.7l55.4-77.9
				c1.9,1,3.9,1.6,6.1,1.8l9,73.7c-2.7,1.5-4.4,4.4-4.4,7.7c0,4,2.7,7.4,6.4,8.4l7.7,62.8C932.4,638.1,931.5,638.7,930.7,639.3z
				 M914.6,737.2l15.3-50.5l40.5-10.3c1.2-0.3,1.9-1.5,1.6-2.7c-0.3-1.2-1.5-1.9-2.7-1.6l-38,9.7l6.5-21.4c0,0,0.1,0,0.1,0
				c5.5,0,10.1-3.7,11.5-8.8l87.5,7.7c0.1,0.5,0.3,1,0.5,1.4L914.6,737.2z M1036.9,655l-87-7.7c-0.5-5.3-4.6-9.6-10-10.5l-7.7-62.8
				c0.4-0.2,0.8-0.5,1.1-0.8l104.2,79.7C1037.3,653.6,1037.1,654.3,1036.9,655z M1045,647.2c-1.8,0.3-3.4,1.1-4.7,2.2L939.1,572
				l99.8,30.3c0,0.3-0.1,0.7-0.1,1c0,5,3.5,9.3,8.2,10.5L1045,647.2z M1054.2,650.5c-1.2-1.5-2.9-2.5-4.8-3.1l2-33.3
				c5.4-0.8,9.5-5.3,9.5-10.8c0-0.3-0.1-0.6-0.1-0.8l31.5-9l11.5,26.2L1054.2,650.5z M1173,651.8l-4.2-30.9
				c-0.2-1.6-1.6-2.9-3.3-2.9l-55.4-0.3l-12.5-28.5c-0.4-0.8-1-1.4-1.8-1.8l-50.2-19.5l-28.4-26.4l18.9-14.5c1.8,1.3,3.9,2,6.3,2
				c6.1,0,11.1-4.9,11.1-11c0-4.8-3.2-8.8-7.5-10.3l1.1-49.1c4-1.4,7-5.1,7-9.5c0-1.4-0.3-2.7-0.8-3.9l18.2-16.2l54.2-3.8l24.3,37.1
				c0.3,0.4,0.7,0.8,1.1,1.1L1210,497l9.2,41.7l1.4,55.1L1173,651.8z M1224.3,530.5l-6.4-29.1l19.8,11.2L1224.3,530.5z"/>
		</g> -->
	</g>
	<g>
		
		<g>
			<!-- <text transform="matrix(1 0 0 1 790.3381 1828.1415)" font-family="'Sansation-Bold'" font-size="82.0225">Digital Lion</text> -->
			<!-- <text transform="matrix(1 0 0 1 851.2869 1876.9989)" font-family="'Sansation-Regular'" font-size="30.7874">TAGLINE  COMPANY</text> -->
			<g>
				<linearGradient id="SVGID_3_" gradientUnits="userSpaceOnUse" x1="825.4189" y1="1627.4159" x2="1136.5681" y2="1547.5262">
					<stop  offset="0" style="stop-color:#702889"/>
					<stop  offset="0.59" style="stop-color:#ED1D84"/>
					<stop  offset="1" style="stop-color:#F26529"/>
				</linearGradient>
				<path fill="url(#SVGID_3_)" d="M1080.3,1554.9c-0.6-0.4-1.4-0.4-2,0l-25,13c-0.9,0.5-1.3,1.5-1.1,2.4c0.3,0.9,1.1,1.5,2,1.5
					c0.1,0,0.1,0,0.2,0l25.4-1.9c1.1-0.1,2-1.1,1.9-2.2l-0.4-11C1081.3,1555.9,1080.9,1555.2,1080.3,1554.9z M1064.4,1566.8
					l12.9-6.7l0.2,5.7L1064.4,1566.8z"/>
				<linearGradient id="SVGID_4_" gradientUnits="userSpaceOnUse" x1="828.0495" y1="1637.6769" x2="1139.2432" y2="1557.7759">
					<stop  offset="0" style="stop-color:#702889"/>
					<stop  offset="0.59" style="stop-color:#ED1D84"/>
					<stop  offset="1" style="stop-color:#F26529"/>
				</linearGradient>
				<path fill="url(#SVGID_4_)" d="M1155.5,1587.6c-0.1-0.6-0.5-1.1-1-1.4l-56.5-32.1l-14.3-21.8l33-11.4c0.9-0.3,1.5-1.2,1.4-2.1
					c-0.1-0.9-0.7-1.7-1.7-1.9l-30.7-6.6l1.6-15.2c0.1-0.6-0.1-1.1-0.5-1.6c-0.4-0.4-0.9-0.7-1.5-0.7l-30.4-1.6l-24.8-30.2
					c-0.7-0.9-2-1-2.9-0.3l-23.9,18c-1.2-0.9-2.7-1.5-4.4-1.5c-3,0-5.5,1.7-6.7,4.2l-36.6-5.7c-1-0.2-2,0.5-2.3,1.5l-8.5,28.3
					c-2.3,0.1-4.3,1.3-5.4,3.1l-29.2-10.6c0-0.2,0.1-0.3,0.1-0.5c0-3.1-2.4-5.6-5.6-5.6c-3.1,0-5.6,2.5-5.6,5.6c0,3,2.4,5.6,5.6,5.6
					c1.9,0,3.6-1,4.6-2.4l29.2,10.6c0,0.2-0.1,0.5-0.1,0.7l-84.1,25.3c-0.1,0-0.1,0.1-0.2,0.1c-0.2,0.1-0.4,0.2-0.5,0.3
					c-0.1,0.1-0.2,0.1-0.2,0.2c-0.1,0.1-0.2,0.3-0.3,0.5c0,0.1-0.1,0.1-0.1,0.2c0,0,0,0.1,0,0.1c0,0-0.1,0.1-0.1,0.1
					c0,0.2,0,0.3,0,0.4c0,0.1,0,0.2,0,0.3c0,0.3,0.1,0.6,0.3,0.8c0,0,0,0,0,0v0l29.3,47.4c-1,1.2-1.6,2.6-1.6,4.2
					c0,1.7,0.7,3.3,1.7,4.4l-12,20.9l-8.7-1.5c-0.1-2.4-1.7-4.5-4.1-5.3c-3.1-1-6.5,0.7-7.5,3.9c-0.9,3.1,0.8,6.4,3.9,7.4
					c3,0.9,6-0.6,7.3-3.3l7.7,1.3l-24.4,42.6c-0.4,0.7-0.4,1.5,0,2.1c0.4,0.7,1.1,1,1.9,1l43.4-1.3l-13.8,15.1
					c-0.3-0.2-0.7-0.4-1.1-0.5c-3.1-0.9-6.5,0.8-7.5,3.9c-0.9,3.1,0.8,6.5,3.9,7.5c3.1,0.9,6.5-0.8,7.5-3.9c0.5-1.8,0.2-3.6-0.8-5.1
					l15.7-17.1l59.6,11c0.2,2.3,1.5,4.3,3.3,5.6l-4.8,16l-27.2,6.9c-0.7-1.2-1.8-2.2-3.3-2.7c-3-0.8-6.1,0.8-6.9,3.8
					c-0.8,2.9,0.8,6,3.7,6.9c3,0.8,6.1-0.8,7-3.7c0.2-0.5,0.2-1.1,0.2-1.6l25.6-6.5l-10.6,34.8c-0.3,0.8,0,1.7,0.7,2.3
					c0.4,0.3,0.8,0.4,1.3,0.4c0.4,0,0.8-0.1,1.1-0.3l83.3-51.7c0.9,0.4,1.8,0.7,2.8,0.7c3.5,0,6.2-2.8,6.2-6.2c0,0,0-0.1,0-0.1
					l33.1-20.6l34,0.2l3,22.5c0.1,0.8,0.7,1.5,1.5,1.7c0.8,0.2,1.7,0,2.2-0.7l33.7-41c0.3-0.4,0.5-0.9,0.5-1.4l-0.9-35.1l12.2-16.3
					C1155.5,1588.8,1155.7,1588.2,1155.5,1587.6z M1108.3,1519.3l-27.9,9.6l-25.4-13c0-0.1,0-0.1,0-0.2l27.1-2.4
					c0.3,0.3,0.6,0.5,1,0.5L1108.3,1519.3z M1075.2,1529.4l-29,2l2.4-10.1c0,0,0.1,0,0.1,0c2.2,0,4.1-1.1,5.3-2.8L1075.2,1529.4z
					 M1081.6,1510.7l-26.4,2.3l27.8-15.3L1081.6,1510.7z M1079.2,1496.6l-25.7,14.1c-0.6-0.6-1.2-1.1-2-1.5l3.3-13.8L1079.2,1496.6z
					 M1028.2,1465.2l21.3,25.9l-43.1-6.7c0-0.8-0.2-1.6-0.5-2.3L1028.2,1465.2z M1006,1487.1l46.2,7.2l0.1,0.1l-3.4,14.1
					c0,0-0.1,0-0.1,0c-3.5,0-6.4,2.9-6.4,6.4c0,2.5,1.5,4.7,3.6,5.7l-2.4,10.2L1005,1489C1005.4,1488.4,1005.7,1487.8,1006,1487.1z
					 M1041.8,1533.1l-11,9.8c-0.9-0.5-2-0.8-3.1-0.8c-0.4,0-0.8,0-1.2,0.1l-22.6-50.3L1041.8,1533.1z M1020.3,1594.4l-11.3,8.7
					l-6.6-26.9l18.1,13.1c-0.4,0.9-0.6,1.8-0.6,2.8C1019.9,1592.9,1020,1593.6,1020.3,1594.4z M962.9,1621.5l43.6-13l16.5,15.3
					L962.9,1621.5z M1026,1626.8l0.2,0.2c0.2,0.2,0.4,0.3,0.7,0.4l27.4,10.6l-16.6,4.7c-1.2-2.2-3.5-3.8-6.2-3.8
					c-2.7,0-4.9,1.5-6.1,3.7l-60.1-18.3L1026,1626.8z M957.1,1560.1l30.7-4.5l9.4,15.9c-0.1,0.4-0.1,0.8,0,1.2l7.1,28.8l-48.1-36.2
					c0.6-1.3,1-2.8,1-4.4C957.2,1560.6,957.1,1560.4,957.1,1560.1z M990.8,1555.2l30.9-4.5c0,0,0,0,0,0l-22.5,18.7L990.8,1555.2z
					 M1003.9,1606.4l-44.6,13.3c-0.7-1.2-1.9-2.2-3.3-2.6l-5.7-46.6c1.3-0.4,2.4-1.1,3.4-2L1003.9,1606.4z M1002.1,1572.5l22.3-18.6
					c0.3,0.2,0.7,0.4,1.1,0.5l-0.7,31c-1,0.3-1.9,0.8-2.7,1.5L1002.1,1572.5z M996,1491.3c0.9,0.4,2,0.7,3.1,0.7
					c0.6,0,1.2-0.1,1.7-0.2l23.1,51.5c-1.5,1.1-2.5,2.8-2.6,4.7l-32,4.7l-6.5-11c1.3-1.3,1.9-3.2,1.5-5.1c-0.6-3-3.6-5-6.6-4.3
					c-3,0.7-5,3.6-4.3,6.7c0.7,2.9,3.6,4.9,6.7,4.2c0.1,0,0.2-0.1,0.3-0.1l5.9,10l-29.8,4.3c-0.8-2.1-2.2-3.8-4-5L996,1491.3z
					 M956.9,1480.2l34.8,5.4c0,0.4,0.1,0.7,0.2,1.1l-41.7,21.4c-0.4-0.5-0.8-0.9-1.3-1.2L956.9,1480.2z M950.8,1515.7l10.1,3.7
					c0.2,0.1,0.3,0.1,0.5,0.1c0.6,0,1.1-0.4,1.3-0.9c0.3-0.7-0.1-1.5-0.8-1.8l-10.1-3.7c0-0.3,0.1-0.6,0.1-0.9
					c0-0.6-0.1-1.2-0.3-1.7l41.7-21.4c0.2,0.2,0.3,0.4,0.5,0.6l-43.7,61.5c-0.6-0.2-1.3-0.3-2-0.4l-1.2-32.2
					C948.4,1518.2,949.9,1517.2,950.8,1515.7z M939.7,1516.1c1,1.4,2.5,2.4,4.3,2.7l1.2,32.1c-3.3,0.6-6.1,2.7-7.5,5.7l-74.5-17.5
					L939.7,1516.1z M894.1,1591l44.9-23.6c0.3,0.3,0.6,0.7,0.9,1l-35.3,49.7c-0.6-0.2-1.2-0.3-1.9-0.3c-0.8,0-1.5,0.2-2.3,0.4
					l-9-20.7c1.7-1.2,2.8-3.2,2.8-5.4C894.2,1591.7,894.1,1591.3,894.1,1591z M859.4,1542.5l77.2,18.1c0,0.1,0,0.2,0,0.2
					c0,1,0.2,1.9,0.4,2.8l-44.9,23.6c-1.2-1.1-2.8-1.9-4.6-1.9c-0.5,0-1,0.1-1.5,0.2L859.4,1542.5z M873.5,1620.7l15,2.6
					c0.1,0,0.2,0,0.2,0c0.7,0,1.3-0.5,1.4-1.2c0.1-0.8-0.4-1.5-1.1-1.6l-14-2.4l11.2-19.6c0.4,0.1,0.9,0.1,1.3,0.1
					c0.5,0,0.9,0,1.3-0.1l9.1,21c-1.7,1.4-2.9,3.5-2.9,5.9c0,0.7,0.1,1.3,0.3,1.9l-43.1,30.6L873.5,1620.7z M892.9,1660.1l-40.8,1.2
					l44.5-31.5c0.6,0.8,1.3,1.5,2.2,2L892.9,1660.1z M901.4,1632.8c0.4,0.1,0.9,0.1,1.3,0.1c1.8,0,3.5-0.7,4.8-1.7l7.3,6.1
					l-18.4,20.1L901.4,1632.8z M954.2,1671.2l-57-10.5l19.7-21.4l37.5,31.7C954.3,1671,954.2,1671.1,954.2,1671.2z M956.1,1668.8
					l-37.4-31.6l10.6-11.6c0.5-0.6,0.5-1.4-0.1-2c-0.6-0.5-1.4-0.5-2,0.1l-10.7,11.7l-7.3-6.2c0.6-1.1,1-2.4,1-3.8
					c0-2.5-1.2-4.7-3.2-6.1l35-49.3c1.2,0.6,2.5,1,3.9,1.1l5.7,46.7c-1.7,1-2.8,2.8-2.8,4.9c0,2.5,1.7,4.7,4.1,5.3l4.9,39.8
					C957.2,1668,956.7,1668.3,956.1,1668.8z M946,1730.7l9.7-31.9l25.6-6.5c0.7-0.2,1.2-0.9,1-1.7c-0.2-0.7-1-1.2-1.7-1l-24,6.1
					l4.1-13.5c0,0,0.1,0,0.1,0c3.5,0,6.4-2.3,7.3-5.5l55.3,4.9c0.1,0.3,0.2,0.6,0.3,0.9L946,1730.7z M1023.4,1678.7l-55-4.9
					c-0.3-3.4-2.9-6.1-6.3-6.6l-4.9-39.8c0.3-0.1,0.5-0.3,0.7-0.5l65.9,50.4C1023.6,1677.8,1023.5,1678.2,1023.4,1678.7z
					 M1028.5,1673.7c-1.1,0.2-2.1,0.7-3,1.4l-64.1-49l63.1,19.2c0,0.2-0.1,0.4-0.1,0.7c0,3.2,2.2,5.9,5.2,6.7L1028.5,1673.7z
					 M1034.3,1675.9c-0.8-0.9-1.8-1.6-3-2l1.2-21.1c3.4-0.5,6-3.4,6-6.8c0-0.2,0-0.4-0.1-0.5l19.9-5.7l7.3,16.6L1034.3,1675.9z
					 M1109.4,1676.7l-2.6-19.6c-0.1-1-1-1.8-2.1-1.8l-35.1-0.2l-7.9-18c-0.2-0.5-0.6-0.9-1.2-1.1l-31.8-12.3l-18-16.7l11.9-9.2
					c1.1,0.8,2.5,1.3,4,1.3c3.9,0,7-3.1,7-7c0-3-2-5.6-4.8-6.5l0.7-31.1c2.5-0.9,4.4-3.2,4.4-6c0-0.9-0.2-1.7-0.5-2.4l11.5-10.2
					l34.3-2.4l15.3,23.5c0.2,0.3,0.4,0.5,0.7,0.7l37.4,21.2l5.8,26.4l0.9,34.9L1109.4,1676.7z M1141.9,1599.9l-4.1-18.4l12.5,7.1
					L1141.9,1599.9z"/>
			</g>
		</g>
		<g>
			<!-- <text transform="matrix(1 0 0 1 1392.4647 1828.1415)" font-family="'Sansation-Bold'" font-size="82.0225">Digital Lion</text>
			<text transform="matrix(1 0 0 1 1453.4135 1876.9989)" font-family="'Sansation-Regular'" font-size="30.7874">TAGLINE  COMPANY</text>
			<g>
				<linearGradient id="SVGID_5_" gradientUnits="userSpaceOnUse" x1="1427.5454" y1="1627.4159" x2="1738.6947" y2="1547.5262">
					<stop  offset="0" style="stop-color:#EF3824"/>
					<stop  offset="0.39" style="stop-color:#F15D22"/>
					<stop  offset="1" style="stop-color:#F4CD2F"/>
				</linearGradient>
				<path fill="url(#SVGID_5_)" d="M1682.4,1554.9c-0.6-0.4-1.4-0.4-2,0l-25,13c-0.9,0.5-1.3,1.5-1.1,2.4c0.3,0.9,1.1,1.5,2,1.5
					c0.1,0,0.1,0,0.2,0l25.4-1.9c1.1-0.1,2-1.1,1.9-2.2l-0.4-11C1683.4,1555.9,1683.1,1555.2,1682.4,1554.9z M1666.5,1566.8
					l12.9-6.7l0.2,5.7L1666.5,1566.8z"/>
				<linearGradient id="SVGID_6_" gradientUnits="userSpaceOnUse" x1="1430.176" y1="1637.6769" x2="1741.3696" y2="1557.7759">
					<stop  offset="0" style="stop-color:#EF3824"/>
					<stop  offset="0.39" style="stop-color:#F15D22"/>
					<stop  offset="1" style="stop-color:#F4CD2F"/>
				</linearGradient>
				<path fill="url(#SVGID_6_)" d="M1757.7,1587.6c-0.1-0.6-0.5-1.1-1-1.4l-56.5-32.1l-14.3-21.8l33-11.4c0.9-0.3,1.5-1.2,1.4-2.1
					c-0.1-0.9-0.7-1.7-1.7-1.9l-30.7-6.6l1.6-15.2c0.1-0.6-0.1-1.1-0.5-1.6c-0.4-0.4-0.9-0.7-1.5-0.7l-30.4-1.6l-24.8-30.2
					c-0.7-0.9-2-1-2.9-0.3l-23.9,18c-1.2-0.9-2.7-1.5-4.4-1.5c-3,0-5.5,1.7-6.7,4.2l-36.6-5.7c-1-0.2-2,0.5-2.3,1.5l-8.5,28.3
					c-2.3,0.1-4.3,1.3-5.4,3.1l-29.2-10.6c0-0.2,0.1-0.3,0.1-0.5c0-3.1-2.4-5.6-5.6-5.6c-3.1,0-5.6,2.5-5.6,5.6c0,3,2.4,5.6,5.6,5.6
					c1.9,0,3.6-1,4.6-2.4l29.2,10.6c0,0.2-0.1,0.5-0.1,0.7l-84.1,25.3c-0.1,0-0.1,0.1-0.2,0.1c-0.2,0.1-0.4,0.2-0.5,0.3
					c-0.1,0.1-0.2,0.1-0.2,0.2c-0.1,0.1-0.2,0.3-0.3,0.5c0,0.1-0.1,0.1-0.1,0.2c0,0,0,0.1,0,0.1c0,0-0.1,0.1-0.1,0.1
					c0,0.2,0,0.3,0,0.4c0,0.1,0,0.2,0,0.3c0,0.3,0.1,0.6,0.3,0.8c0,0,0,0,0,0v0l29.3,47.4c-1,1.2-1.6,2.6-1.6,4.2
					c0,1.7,0.7,3.3,1.7,4.4l-12,20.9l-8.7-1.5c-0.1-2.4-1.7-4.5-4.1-5.3c-3.1-1-6.5,0.7-7.5,3.9c-0.9,3.1,0.8,6.4,3.9,7.4
					c3,0.9,6-0.6,7.3-3.3l7.7,1.3l-24.4,42.6c-0.4,0.7-0.4,1.5,0,2.1c0.4,0.7,1.1,1,1.9,1l43.4-1.3l-13.8,15.1
					c-0.3-0.2-0.7-0.4-1.1-0.5c-3.1-0.9-6.5,0.8-7.5,3.9c-0.9,3.1,0.8,6.5,3.9,7.5c3.1,0.9,6.5-0.8,7.5-3.9c0.5-1.8,0.2-3.6-0.8-5.1
					l15.7-17.1l59.6,11c0.2,2.3,1.5,4.3,3.3,5.6l-4.8,16l-27.2,6.9c-0.7-1.2-1.8-2.2-3.3-2.7c-3-0.8-6.1,0.8-6.9,3.8
					c-0.8,2.9,0.8,6,3.7,6.9c3,0.8,6.1-0.8,7-3.7c0.2-0.5,0.2-1.1,0.2-1.6l25.6-6.5l-10.6,34.8c-0.3,0.8,0,1.7,0.7,2.3
					c0.4,0.3,0.8,0.4,1.3,0.4c0.4,0,0.8-0.1,1.1-0.3l83.3-51.7c0.9,0.4,1.8,0.7,2.8,0.7c3.5,0,6.2-2.8,6.2-6.2c0,0,0-0.1,0-0.1
					l33.1-20.6l34,0.2l3,22.5c0.1,0.8,0.7,1.5,1.5,1.7c0.8,0.2,1.7,0,2.2-0.7l33.7-41c0.3-0.4,0.5-0.9,0.5-1.4l-0.9-35.1l12.2-16.3
					C1757.6,1588.8,1757.8,1588.2,1757.7,1587.6z M1710.4,1519.3l-27.9,9.6l-25.4-13c0-0.1,0-0.1,0-0.2l27.1-2.4
					c0.3,0.3,0.6,0.5,1,0.5L1710.4,1519.3z M1677.3,1529.4l-29,2l2.4-10.1c0,0,0.1,0,0.1,0c2.2,0,4.1-1.1,5.3-2.8L1677.3,1529.4z
					 M1683.7,1510.7l-26.4,2.3l27.8-15.3L1683.7,1510.7z M1681.3,1496.6l-25.7,14.1c-0.6-0.6-1.2-1.1-2-1.5l3.3-13.8L1681.3,1496.6z
					 M1630.3,1465.2l21.3,25.9l-43.1-6.7c0-0.8-0.2-1.6-0.5-2.3L1630.3,1465.2z M1608.1,1487.1l46.2,7.2l0.1,0.1l-3.4,14.1
					c0,0-0.1,0-0.1,0c-3.5,0-6.4,2.9-6.4,6.4c0,2.5,1.5,4.7,3.6,5.7l-2.4,10.2l-38.5-41.8
					C1607.5,1488.4,1607.9,1487.8,1608.1,1487.1z M1643.9,1533.1l-11,9.8c-0.9-0.5-2-0.8-3.1-0.8c-0.4,0-0.8,0-1.2,0.1l-22.6-50.3
					L1643.9,1533.1z M1622.4,1594.4l-11.3,8.7l-6.6-26.9l18.1,13.1c-0.4,0.9-0.6,1.8-0.6,2.8
					C1622,1592.9,1622.2,1593.6,1622.4,1594.4z M1565,1621.5l43.6-13l16.4,15.3L1565,1621.5z M1628.2,1626.8l0.2,0.2
					c0.2,0.2,0.4,0.3,0.7,0.4l27.4,10.6l-16.6,4.7c-1.2-2.2-3.5-3.8-6.2-3.8c-2.7,0-4.9,1.5-6.1,3.7l-60.1-18.3L1628.2,1626.8z
					 M1559.2,1560.1l30.7-4.5l9.4,15.9c-0.1,0.4-0.1,0.8,0,1.2l7.1,28.8l-48.1-36.2c0.6-1.3,1-2.8,1-4.4
					C1559.3,1560.6,1559.3,1560.4,1559.2,1560.1z M1592.9,1555.2l30.9-4.5c0,0,0,0,0,0l-22.5,18.7L1592.9,1555.2z M1606,1606.4
					l-44.6,13.3c-0.7-1.2-1.9-2.2-3.3-2.6l-5.7-46.6c1.3-0.4,2.4-1.1,3.4-2L1606,1606.4z M1604.2,1572.5l22.3-18.6
					c0.3,0.2,0.7,0.4,1.1,0.5l-0.7,31c-1,0.3-1.9,0.8-2.7,1.5L1604.2,1572.5z M1598.1,1491.3c0.9,0.4,2,0.7,3.1,0.7
					c0.6,0,1.2-0.1,1.7-0.2l23.1,51.5c-1.5,1.1-2.5,2.8-2.6,4.7l-32,4.7l-6.5-11c1.3-1.3,1.9-3.2,1.5-5.1c-0.6-3-3.6-5-6.6-4.3
					c-3,0.7-5,3.6-4.3,6.7c0.7,2.9,3.6,4.9,6.7,4.2c0.1,0,0.2-0.1,0.3-0.1l5.9,10l-29.8,4.3c-0.8-2.1-2.2-3.8-4-5L1598.1,1491.3z
					 M1559,1480.2l34.8,5.4c0,0.4,0.1,0.7,0.2,1.1l-41.7,21.4c-0.4-0.5-0.8-0.9-1.3-1.2L1559,1480.2z M1552.9,1515.7l10.1,3.7
					c0.2,0.1,0.3,0.1,0.5,0.1c0.6,0,1.1-0.4,1.3-0.9c0.3-0.7-0.1-1.5-0.8-1.8l-10.1-3.7c0-0.3,0.1-0.6,0.1-0.9
					c0-0.6-0.1-1.2-0.3-1.7l41.7-21.4c0.2,0.2,0.3,0.4,0.5,0.6l-43.7,61.5c-0.6-0.2-1.3-0.3-2-0.4l-1.2-32.2
					C1550.6,1518.2,1552,1517.2,1552.9,1515.7z M1541.8,1516.1c1,1.4,2.5,2.4,4.3,2.7l1.2,32.1c-3.3,0.6-6.1,2.7-7.5,5.7l-74.5-17.5
					L1541.8,1516.1z M1496.2,1591l44.9-23.6c0.3,0.3,0.6,0.7,0.9,1l-35.3,49.7c-0.6-0.2-1.2-0.3-1.9-0.3c-0.8,0-1.5,0.2-2.3,0.4
					l-9-20.7c1.7-1.2,2.8-3.2,2.8-5.4C1496.3,1591.7,1496.3,1591.3,1496.2,1591z M1461.5,1542.5l77.2,18.1c0,0.1,0,0.2,0,0.2
					c0,1,0.2,1.9,0.4,2.8l-44.9,23.6c-1.2-1.1-2.8-1.9-4.6-1.9c-0.5,0-1,0.1-1.5,0.2L1461.5,1542.5z M1475.7,1620.7l15,2.6
					c0.1,0,0.2,0,0.2,0c0.7,0,1.3-0.5,1.4-1.2c0.1-0.8-0.4-1.5-1.1-1.6l-14-2.4l11.2-19.6c0.4,0.1,0.9,0.1,1.3,0.1
					c0.5,0,0.9,0,1.3-0.1l9.1,21c-1.7,1.4-2.9,3.5-2.9,5.9c0,0.7,0.1,1.3,0.3,1.9l-43.1,30.6L1475.7,1620.7z M1495.1,1660.1
					l-40.8,1.2l44.5-31.5c0.6,0.8,1.3,1.5,2.2,2L1495.1,1660.1z M1503.5,1632.8c0.4,0.1,0.9,0.1,1.3,0.1c1.8,0,3.5-0.7,4.8-1.7
					l7.3,6.1l-18.4,20.1L1503.5,1632.8z M1556.3,1671.2l-57-10.5l19.7-21.4l37.5,31.7C1556.4,1671,1556.3,1671.1,1556.3,1671.2z
					 M1558.3,1668.8l-37.4-31.6l10.6-11.6c0.5-0.6,0.5-1.4-0.1-2c-0.6-0.5-1.4-0.5-2,0.1l-10.7,11.7l-7.3-6.2c0.6-1.1,1-2.4,1-3.8
					c0-2.5-1.2-4.7-3.2-6.1l35-49.3c1.2,0.6,2.5,1,3.9,1.1l5.7,46.7c-1.7,1-2.8,2.8-2.8,4.9c0,2.5,1.7,4.7,4.1,5.3l4.9,39.8
					C1559.4,1668,1558.8,1668.3,1558.3,1668.8z M1548.1,1730.7l9.7-31.9l25.6-6.5c0.7-0.2,1.2-0.9,1-1.7c-0.2-0.7-1-1.2-1.7-1
					l-24,6.1l4.1-13.5c0,0,0.1,0,0.1,0c3.5,0,6.4-2.3,7.3-5.5l55.3,4.9c0.1,0.3,0.2,0.6,0.3,0.9L1548.1,1730.7z M1625.5,1678.7
					l-55-4.9c-0.3-3.4-2.9-6.1-6.3-6.6l-4.9-39.8c0.3-0.1,0.5-0.3,0.7-0.5l65.9,50.4C1625.8,1677.8,1625.6,1678.2,1625.5,1678.7z
					 M1630.6,1673.7c-1.1,0.2-2.1,0.7-3,1.4l-64.1-49l63.1,19.2c0,0.2-0.1,0.4-0.1,0.7c0,3.2,2.2,5.9,5.2,6.7L1630.6,1673.7z
					 M1636.4,1675.9c-0.8-0.9-1.8-1.6-3-2l1.2-21.1c3.4-0.5,6-3.4,6-6.8c0-0.2,0-0.4-0.1-0.5l19.9-5.7l7.3,16.6L1636.4,1675.9z
					 M1711.6,1676.7l-2.6-19.6c-0.1-1-1-1.8-2.1-1.8l-35.1-0.2l-7.9-18c-0.2-0.5-0.6-0.9-1.2-1.1l-31.8-12.3l-18-16.7l11.9-9.2
					c1.1,0.8,2.5,1.3,4,1.3c3.9,0,7-3.1,7-7c0-3-2-5.6-4.8-6.5l0.7-31.1c2.5-0.9,4.4-3.2,4.4-6c0-0.9-0.2-1.7-0.5-2.4l11.5-10.2
					l34.3-2.4l15.3,23.5c0.2,0.3,0.4,0.5,0.7,0.7l37.4,21.2l5.8,26.4l0.9,34.9L1711.6,1676.7z M1744,1599.9l-4.1-18.4l12.5,7.1
					L1744,1599.9z"/>
			</g> -->
		</g>
	</g>
</g>
</svg>
